<?xml version="1.0" ?><!DOCTYPE svg  PUBLIC '-//W3C//DTD SVG 1.1//EN'  'http://www.w3.org/Graphics/SVG/1.1/DTD/svg11.dtd'><svg enable-background="new 0 0 72 72" id="Layer_1" version="1.1" viewBox="0 0 72 72" xml:space="preserve" xmlns="http://www.w3.org/2000/svg" xmlns:xlink="http://www.w3.org/1999/xlink"><g><path d="M63.3,0.5H8.7c-0.5,0-1,0.4-1,1V58c0,0.5,0.2,0.9,0.5,1.3L19.9,71c0.3,0.3,0.8,0.5,1.3,0.5h42.2   c0.5,0,1-0.4,1-1v-69C64.3,0.9,63.9,0.5,63.3,0.5z M48,13.2h1.6c0.2,0,0.3,0.1,0.4,0.2l2.9,7.9c0.1,0.3,0.6,0.3,0.7,0l2.9-7.9   c0.1-0.1,0.2-0.2,0.4-0.2h1.6c0.3,0,0.4,0.3,0.4,0.5L54.6,25c-0.1,0.1-0.2,0.2-0.4,0.2h-2.1c-0.2,0-0.3-0.1-0.4-0.2l-4.2-11.3   C47.5,13.4,47.7,13.2,48,13.2z M38,14.7c1.2-1.2,2.6-1.7,4.2-1.7c1.6,0,2.9,0.5,4,1.6c0.1,0.1,0.1,0.4,0,0.5l-0.9,1.2   c-0.1,0.2-0.4,0.2-0.6,0.1c-0.9-0.7-1.7-1.1-2.6-1.1c-1,0-1.8,0.4-2.5,1.1c-0.7,0.7-1.1,1.6-1.1,2.7s0.4,2.1,1.1,2.8   c0.7,0.8,1.6,1.2,2.6,1.2c0.9,0,1.8-0.4,2.6-1.2c0.2-0.2,0.4-0.2,0.6,0l0.9,1c0.1,0.2,0.1,0.4,0,0.5c-1.3,1.3-2.8,2-4.4,2   c-1.5,0-2.9-0.6-4-1.7s-1.7-2.6-1.7-4.5C36.3,17.4,36.9,15.9,38,14.7z M22.3,5.7c3,0,5.4,2.7,5.4,6c0,3.3-2.4,6-5.4,6   c-3,0-5.4-2.7-5.4-6C17,8.4,19.4,5.7,22.3,5.7z M18.4,20.9c0.3-0.1,0.7-0.1,0.9,0.2l2.4,2.4c0.3,0.3,0.9,0.3,1.2,0l2.4-2.4   c0.2-0.2,0.6-0.3,0.9-0.2c3.4,1.4,5.8,4.7,6.1,8.5c0,0.4-0.3,0.8-0.8,0.8H13c-0.4,0-0.8-0.4-0.8-0.8C12.6,25.6,15,22.3,18.4,20.9z    M24.1,67.4c0,0.4-0.4,0.5-0.7,0.3L12,56.3c-0.3-0.3-0.1-0.7,0.3-0.7h11.4c0.2,0,0.4,0.2,0.4,0.4V67.4z M57.9,63.6H29   c-1.1,0-2-0.9-2-2s0.9-2,2-2h28.9c1.1,0,2,0.9,2,2S59,63.6,57.9,63.6z M57.9,51.3H14.1c-1.1,0-2-0.9-2-2s0.9-2,2-2h43.8   c1.1,0,2,0.9,2,2S59,51.3,57.9,51.3z M57.9,40.7H14.1c-1.1,0-2-0.9-2-2s0.9-2,2-2h43.8c1.1,0,2,0.9,2,2S59,40.7,57.9,40.7z" fill="#010101"/></g></svg>